<?xml version="1.0" encoding="UTF-8"?>
<!--

    Copyright (c) 2016-2018 Red Hat, Inc.
    This program and the accompanying materials are made
    available under the terms of the Eclipse Public License 2.0
    which is available at https://www.eclipse.org/legal/epl-2.0/

    SPDX-License-Identifier: EPL-2.0

    Contributors:
      Red Hat, Inc. - initial API and implementation

-->
<svg id="Layer_1" width="225" height="57" version="1.1" viewBox="0 0 225 57" xml:space="preserve" xmlns="http://www.w3.org/2000/svg" xmlns:cc="http://creativecommons.org/ns#" xmlns:dc="http://purl.org/dc/elements/1.1/" xmlns:rdf="http://www.w3.org/1999/02/22-rdf-syntax-ns#"><metadata id="metadata4994"></metadata><style id="style4926" type="text/css">
	.st0{fill:#A30000;fill-opacity:0.2}
	.st1{fill:#CC0000;fill-opacity:0.2}
	.st2{fill:#820000;fill-opacity:0.2}
	.st3{fill:#FFFFFF;fill-opacity:0.2}
</style><g id="g4928" transform="matrix(.36773 0 0 .36773 -35.423 -76.652)" fill-opacity=".2"><g id="g4930"><path id="path4932" class="st0" d="m143.8 278.9-24 8.7c0.3 3.8 1 7.6 1.9 11.3l22.8-8.3c-0.8-3.8-1-7.8-0.7-11.7" fill="#a30000"/><path id="path4934" class="st0" d="m249.6 252.4c-1.7-3.5-3.6-6.8-5.8-9.9l-24 8.7c2.8 2.8 5.1 6.1 7 9.5l22.8-8.3z" fill="#a30000"/><path id="path4936" class="st1" d="m196.9 245.6c5 2.3 9.3 5.5 12.9 9.2l24-8.7c-6.6-9.3-15.7-17.1-26.7-22.3-34.2-16-75.1-1.1-91 33.1-5.2 11.1-7.1 22.8-6.2 34.2l24-8.7c0.4-5.2 1.7-10.4 4-15.4 10.3-22.1 36.8-31.8 59-21.4" fill="#c00"/><path id="path4938" class="st1" d="m123.2 298.4-22.8 8.3c2.1 8.3 5.7 16.2 10.7 23.2l23.9-8.7c-6.1-6.3-10.2-14.3-11.8-22.8" fill="#c00"/><path id="path4940" class="st1" d="m222.5 289.4c-0.4 5.2-1.7 10.4-4 15.4-10.4 22.3-36.9 31.9-59.1 21.5-5-2.3-9.3-5.5-13-9.2l-23.9 8.7c6.6 9.3 15.6 17.1 26.7 22.3 34.2 16 75.1 1.1 91-33.1 5.2-11.1 7.1-22.8 6.2-34.2l-23.9 8.6z" fill="#c00"/><path id="path4942" class="st1" d="m228.4 260.1-22.8 8.3c4.2 7.6 6.2 16.3 5.6 25.1l23.9-8.7c-0.7-8.6-3-17-6.7-24.7" fill="#c00"/><path id="path4944" class="st2" d="m143.7 283.7c-0.1-1.6 0-3.2 0.1-4.8l-24 8.7c0.1 1.5 0.3 3.1 0.5 4.6l23.4-8.5z" fill="#820000"/><path id="path4946" class="st2" d="m246.2 246.1c-0.8-1.2-1.5-2.4-2.4-3.6l-23.9 8.7c1.1 1.1 2 2.2 2.9 3.4l23.4-8.5z" fill="#820000"/><path id="path4948" class="st0" d="m122.5 325.8c1.8 2.6 3.9 5.1 6.1 7.4l26-9.5c-3-1.9-5.8-4.1-8.2-6.6l-23.9 8.7zm123.9-45.1-23.9 8.7c-0.3 3.4-0.9 6.9-2 10.3l26-9.5c0.2-3.2 0.1-6.4-0.1-9.5" fill="#a30000"/></g><g id="g4950" fill="#fff"><path id="path4952" class="st3" d="m294.1 272.3-5-10.4h-3.4v10.4h-8.4v-30.8h13.8c1.8 0 3.4 0.2 4.9 0.6s2.8 0.9 3.8 1.7c1.1 0.8 1.9 1.8 2.4 3.1 0.6 1.3 0.9 2.8 0.9 4.6 0 2.3-0.5 4.2-1.5 5.7s-2.4 2.6-4.1 3.3l6.2 11.8h-9.6zm-0.4-22.9c-0.6-0.6-1.5-0.9-2.9-0.9h-5.2v6.7h5c1.4 0 2.4-0.3 3-0.9s0.9-1.4 0.9-2.6c0.1-0.9-0.2-1.7-0.8-2.3z"/><path id="path4954" class="st3" d="m310.1 272.3v-30.8h23.6v7.2h-15.2v4.1h9.1v7h-9.1v5.3h15.5v7.2h-23.9z"/><path id="path4956" class="st3" d="m366.4 264.1c-0.7 2-1.8 3.6-3.2 4.8s-3.2 2.1-5.2 2.6c-2.1 0.5-4.5 0.8-7.2 0.8h-10v-30.8h10.8c2.4 0 4.6 0.2 6.6 0.7s3.6 1.3 5 2.5 2.4 2.8 3.2 4.7c0.7 1.9 1.1 4.4 1.1 7.3s-0.4 5.4-1.1 7.4zm-8-10.9c-0.2-1-0.7-1.9-1.2-2.5-0.6-0.6-1.3-1.1-2.2-1.4s-2-0.5-3.3-0.5h-2.1v16.2h1.8c1.3 0 2.5-0.1 3.4-0.4s1.7-0.7 2.3-1.4c0.6-0.6 1-1.5 1.3-2.5s0.4-2.3 0.4-3.9c-0.1-1.4-0.2-2.6-0.4-3.6z"/><path id="path4958" class="st3" d="m408.2 272.3v-12.2h-9.6v12.2h-8.7v-30.8h8.7v11.2h9.6v-11.2h8.7v30.8h-8.7z"/><path id="path4960" class="st3" d="m444.4 272.3-1.7-5.4h-9.3l-1.7 5.4h-9.2l11.2-30.8h8.6l11.2 30.8h-9.1zm-4.3-14.2c-0.3-1-0.5-1.9-0.7-2.6s-0.4-1.4-0.6-2-0.3-1.1-0.4-1.6l-0.3-1.5-0.3 1.5c-0.1 0.5-0.3 1-0.4 1.6-0.2 0.6-0.3 1.2-0.6 2-0.2 0.7-0.4 1.6-0.7 2.6l-0.6 2h5.1l-0.5-2z"/><path id="path4962" class="st3" d="m471.1 248.9v23.4h-8.5v-23.4h-8.6v-7.4h25.8v7.4h-8.7z"/><path id="path4964" class="st3" d="m491.2 246.8c-0.2 0.5-0.5 0.9-0.8 1.3s-0.8 0.6-1.3 0.8-1 0.3-1.6 0.3-1.1-0.1-1.6-0.3-0.9-0.5-1.3-0.8-0.6-0.8-0.8-1.3-0.3-1-0.3-1.6 0.1-1.1 0.3-1.6 0.5-0.9 0.8-1.3c0.4-0.4 0.8-0.6 1.3-0.8s1-0.3 1.6-0.3 1.1 0.1 1.6 0.3 0.9 0.5 1.3 0.8c0.4 0.4 0.6 0.8 0.8 1.3s0.3 1 0.3 1.6-0.1 1.1-0.3 1.6zm-0.6-2.9c-0.2-0.4-0.4-0.8-0.7-1.1s-0.7-0.5-1.1-0.7-0.8-0.3-1.3-0.3-0.9 0.1-1.3 0.3-0.8 0.4-1.1 0.7-0.5 0.7-0.7 1.1-0.3 0.8-0.3 1.3 0.1 0.9 0.3 1.3 0.4 0.8 0.7 1.1 0.7 0.5 1.1 0.7 0.8 0.3 1.3 0.3 0.9-0.1 1.3-0.3 0.8-0.4 1.1-0.7 0.5-0.7 0.7-1.1 0.3-0.8 0.3-1.3c-0.1-0.4-0.2-0.9-0.3-1.3zm-1.6 1.2c-0.2 0.2-0.4 0.4-0.7 0.4l0.9 1.8h-0.9l-0.8-1.7h-0.8v1.7h-0.7v-4.3h1.9c0.2 0 0.4 0 0.5 0.1 0.2 0.1 0.3 0.1 0.4 0.2s0.2 0.2 0.3 0.4 0.1 0.4 0.1 0.6c0.1 0.4 0 0.6-0.2 0.8zm-0.6-1.2c-0.1-0.1-0.3-0.2-0.5-0.2h-1.1v1.2h1.1c0.2 0 0.4 0 0.5-0.1s0.2-0.3 0.2-0.5c-0.1-0.2-0.1-0.3-0.2-0.4z"/><path id="path4966" class="st3" d="m312.3 313.8c-0.9 2.9-2.2 5.5-3.9 7.6s-3.7 3.8-6.1 5-5 1.8-7.9 1.8-5.5-0.6-7.8-1.8c-2.4-1.2-4.4-2.8-6-4.9-1.7-2.1-3-4.6-3.9-7.5s-1.4-6.1-1.4-9.6 0.5-6.7 1.4-9.6 2.2-5.5 3.9-7.6 3.7-3.8 6.1-5 5-1.8 7.9-1.8 5.5 0.6 7.8 1.8c2.4 1.2 4.4 2.8 6 4.9 1.7 2.1 3 4.6 3.9 7.5s1.4 6.1 1.4 9.6-0.5 6.7-1.4 9.6zm-4.9-17.4c-0.7-2.4-1.7-4.4-3-6.1s-2.8-3-4.5-3.9-3.6-1.4-5.6-1.4-3.8 0.5-5.5 1.4-3.2 2.2-4.4 3.8c-1.2 1.7-2.2 3.7-2.9 6-0.7 2.4-1.1 5-1.1 7.9s0.4 5.5 1.1 7.9 1.7 4.4 3 6.1 2.7 3 4.5 3.9c1.7 0.9 3.6 1.4 5.6 1.4s3.8-0.5 5.5-1.4 3.2-2.2 4.4-3.8c1.2-1.7 2.2-3.7 2.9-6 0.7-2.4 1.1-5 1.1-7.9s-0.3-5.5-1.1-7.9z"/><path id="path4968" class="st3" d="m356.7 301.1c-0.8 1.8-1.8 3.3-3.2 4.5s-3 2.1-5 2.7c-1.9 0.6-4.1 0.9-6.3 0.9h-11.2v18.2h-5.2v-46.3h17.3c2.1 0 4.1 0.3 5.8 0.8 1.8 0.6 3.3 1.4 4.7 2.5 1.3 1.1 2.4 2.6 3.1 4.3s1.1 3.8 1.1 6.1c0.1 2.4-0.3 4.5-1.1 6.3zm-6.5-12.9c-1.7-1.6-4.1-2.4-7.3-2.4h-12v18.7h11.3c7 0 10.4-3.1 10.4-9.4 0.1-3-0.7-5.3-2.4-6.9z"/><path id="path4970" class="st3" d="m368.7 327.4v-46.3h28v4.7h-22.8v14.5h13.1v4.7h-13.2v17.6h23.8v4.7h-28.9z"/><path id="path4972" class="st3" d="m437.9 327.4-20.2-31.7c-0.3-0.4-0.5-0.9-0.9-1.4-0.3-0.6-0.6-1.1-0.9-1.7s-0.6-1.1-0.9-1.6-0.5-0.9-0.6-1.2v3.2 34.3h-5v-46.3h5l20 32.2c0.3 0.4 0.6 0.9 0.9 1.4 0.3 0.6 0.6 1.1 0.9 1.7s0.6 1.1 0.9 1.6 0.5 0.9 0.6 1.2v-3.1-34.9h5v46.3h-4.8z"/><path id="path4974" class="st3" d="m484.3 320.3c-0.7 1.6-1.7 3-3 4.1s-2.9 2-4.8 2.7-4.1 1-6.5 1c-3.2 0-6.1-0.6-8.8-1.8s-4.9-2.7-6.8-4.6l3.4-3.8c1.8 1.7 3.7 3 5.7 4s4.2 1.5 6.6 1.5c3.1 0 5.5-0.7 7.3-2.1s2.7-3.3 2.7-5.8c0-1.1-0.2-2-0.5-2.9-0.4-0.9-1-1.7-1.8-2.4-0.9-0.7-2-1.5-3.4-2.2s-3.2-1.5-5.3-2.2c-2.5-0.9-4.6-1.8-6.3-2.7s-3.1-1.9-4.1-2.9-1.8-2.2-2.2-3.5c-0.5-1.3-0.7-2.8-0.7-4.4 0-1.8 0.4-3.5 1.1-5s1.7-2.7 2.9-3.7c1.3-1 2.8-1.8 4.6-2.3s3.8-0.8 5.9-0.8c3.1 0 5.7 0.4 7.9 1.3s4.2 2.1 6.2 3.6l-3.3 4c-1.7-1.4-3.4-2.5-5.1-3.2s-3.7-1.1-6-1.1c-1.6 0-3 0.2-4.1 0.6s-2.1 0.9-2.8 1.5-1.3 1.3-1.6 2.1-0.5 1.7-0.5 2.6c0 1 0.1 1.8 0.4 2.6s0.8 1.5 1.6 2.2 1.9 1.4 3.3 2.1 3.3 1.5 5.6 2.3c2.6 0.9 4.7 1.8 6.4 2.8 1.7 0.9 3.1 1.9 4.1 3s1.8 2.3 2.2 3.6 0.7 2.8 0.7 4.6c0 1.9-0.3 3.6-1 5.2z"/><path id="path4976" class="st3" d="m526.1 327.4v-21.8h-23v21.8h-5.1v-46.3h5.2v19.8h23v-19.8h5.2v46.3h-5.3z"/><path id="path4978" class="st3" d="m545.8 327.4v-46.3h5.2v46.3h-5.2z"/><path id="path4980" class="st3" d="m570.5 285.8v15.3h12.7v4.7h-12.7v21.5h-5.2v-46.3h27.2v4.7h-22z"/><path id="path4982" class="st3" d="m619.5 285.8v41.6h-5.2v-41.6h-13.6v-4.7h32.4v4.7h-13.6z"/><path id="path4984" class="st3" d="m641.2 326.2c-0.8 0.8-1.8 1.3-3 1.3-1.1 0-2.1-0.4-3-1.3-0.8-0.8-1.3-1.8-1.3-3 0-1.1 0.4-2.2 1.3-3 0.8-0.9 1.8-1.3 3-1.3 1.1 0 2.1 0.4 3 1.3 0.8 0.9 1.3 1.9 1.3 3-0.1 1.2-0.5 2.2-1.3 3z"/><path id="path4986" class="st3" d="m658.9 285.5c-0.7 0.7-1.5 1-2.4 1-1 0-1.9-0.3-2.6-1s-1.1-1.5-1.1-2.5 0.4-1.9 1.1-2.5c0.7-0.7 1.6-1 2.6-1 0.9 0 1.7 0.3 2.4 1s1 1.5 1 2.5-0.3 1.8-1 2.5zm-5 41.9v-34.7h5v34.7h-5z"/><path id="path4988" class="st3" d="m699.3 317.6c-0.8 2.3-1.9 4.2-3.2 5.7-1.4 1.6-3 2.7-4.8 3.5s-3.8 1.2-5.9 1.2-4.1-0.4-5.9-1.2-3.4-1.9-4.7-3.4-2.4-3.4-3.1-5.6c-0.8-2.2-1.2-4.8-1.2-7.8s0.4-5.6 1.2-7.8 1.9-4.1 3.2-5.7c1.4-1.5 3-2.7 4.8-3.5s3.8-1.2 5.9-1.2 4.1 0.4 5.9 1.1 3.4 1.9 4.7 3.4 2.4 3.4 3.1 5.6c0.8 2.2 1.2 4.8 1.2 7.8 0 3.1-0.4 5.7-1.2 7.9zm-6.6-18c-1.8-2.3-4.3-3.4-7.3-3.4s-5.5 1.1-7.3 3.4-2.7 5.7-2.7 10.3 0.9 8.1 2.7 10.4 4.2 3.5 7.3 3.5 5.5-1.2 7.3-3.5 2.8-5.8 2.8-10.4c-0.1-4.6-1-8-2.8-10.3z"/></g></g></svg>
