<?xml version="1.0" encoding="UTF-8" standalone="no"?><svg xmlns="http://www.w3.org/2000/svg" xmlns:xlink="http://www.w3.org/1999/xlink" contentScriptType="application/ecmascript" contentStyleType="text/css" height="829.2px" preserveAspectRatio="none" style="width:564px;height:829px;background:#EEEBDC;" version="1.1" viewBox="0 0 564 829" width="564.6px" zoomAndPan="magnify"><defs><filter height="300%" id="fj09nia9ixxdw" width="300%" x="-1" y="-1"><feGaussianBlur result="blurOut" stdDeviation="1.2000000476837158"/><feColorMatrix in="blurOut" result="blurOut2" type="matrix" values="0 0 0 0 0 0 0 0 0 0 0 0 0 0 0 0 0 0 .4 0"/><feOffset dx="2.4000000953674316" dy="2.4000000953674316" in="blurOut2" result="blurOut3"/><feBlend in="SourceGraphic" in2="blurOut3" mode="normal"/></filter></defs><g><rect fill="#FFFFFF" filter="url(#fj09nia9ixxdw)" height="486.5203" style="stroke: #FFFFFF; stroke-width: 0.6000000238418579;" width="6" x="218.7" y="87.8578"/><line style="stroke: #A80036; stroke-width: 0.6000000238418579;" x1="218.7" x2="218.7" y1="87.8578" y2="574.3781"/><line style="stroke: #A80036; stroke-width: 0.6000000238418579;" x1="224.7" x2="224.7" y1="87.8578" y2="574.3781"/><line style="stroke: #A80036; stroke-width: 0.6000000238418579;" x1="218.7" x2="224.7" y1="87.8578" y2="87.8578"/><rect fill="#FFFFFF" filter="url(#fj09nia9ixxdw)" height="41.5594" style="stroke: #FFFFFF; stroke-width: 0.6000000238418579;" width="6" x="218.7" y="598.861"/><line style="stroke: #A80036; stroke-width: 0.6000000238418579;" x1="218.7" x2="218.7" y1="598.861" y2="640.4203"/><line style="stroke: #A80036; stroke-width: 0.6000000238418579;" x1="224.7" x2="224.7" y1="598.861" y2="640.4203"/><line style="stroke: #A80036; stroke-width: 0.6000000238418579;" x1="218.7" x2="224.7" y1="640.4203" y2="640.4203"/><rect fill="#FFFFFF" filter="url(#fj09nia9ixxdw)" height="373.2422" style="stroke: #A80036; stroke-width: 0.6000000238418579;" width="6" x="347.1" y="148.6969"/><rect fill="#FFFFFF" filter="url(#fj09nia9ixxdw)" height="18" style="stroke: #A80036; stroke-width: 0.6000000238418579;" width="6" x="347.1" y="733.1016"/><rect fill="#EEEBDC" filter="url(#fj09nia9ixxdw)" height="412.4016" style="stroke: #000000; stroke-width: 1.2000000476837158;" width="509.7" x="42" y="157.7766"/><rect fill="#EEEBDC" height="349.6828" style="stroke: none; stroke-width: 0.6000000238418579;" width="509.7" x="42" y="220.4953"/><rect fill="#EEEBDC" filter="url(#fj09nia9ixxdw)" height="314.9203" style="stroke: #000000; stroke-width: 1.2000000476837158;" width="497.7" x="48" y="251.0578"/><rect fill="#EEEBDC" height="234.7219" style="stroke: none; stroke-width: 0.6000000238418579;" width="497.7" x="48" y="331.2563"/><rect fill="#EEEBDC" filter="url(#fj09nia9ixxdw)" height="159" style="stroke: #000000; stroke-width: 1.2000000476837158;" width="485.7" x="54" y="402.7781"/><rect fill="#EEEBDC" height="78.8016" style="stroke: none; stroke-width: 0.6000000238418579;" width="485.7" x="54" y="482.9766"/><line style="stroke: #A80036; stroke-width: 0.6000000238418579;" x1="82.8" x2="82.8" y1="51.7781" y2="574.3781"/><line style="stroke: #A80036; stroke-width: 0.6000000238418579; stroke-dasharray: 1.0,4.0;" x1="82.8" x2="82.8" y1="574.3781" y2="598.861"/><line style="stroke: #A80036; stroke-width: 0.6000000238418579;" x1="82.8" x2="82.8" y1="598.861" y2="645.3"/><line style="stroke: #A80036; stroke-width: 0.6000000238418579; stroke-dasharray: 1.0,4.0;" x1="82.8" x2="82.8" y1="645.3" y2="669.7828"/><line style="stroke: #A80036; stroke-width: 0.6000000238418579;" x1="82.8" x2="82.8" y1="669.7828" y2="776.9813"/><line style="stroke: #A80036; stroke-width: 0.6000000238418579;" x1="166.5" x2="166.5" y1="51.7781" y2="574.3781"/><line style="stroke: #A80036; stroke-width: 0.6000000238418579; stroke-dasharray: 1.0,4.0;" x1="166.5" x2="166.5" y1="574.3781" y2="598.861"/><line style="stroke: #A80036; stroke-width: 0.6000000238418579;" x1="166.5" x2="166.5" y1="598.861" y2="645.3"/><line style="stroke: #A80036; stroke-width: 0.6000000238418579; stroke-dasharray: 1.0,4.0;" x1="166.5" x2="166.5" y1="645.3" y2="669.7828"/><line style="stroke: #A80036; stroke-width: 0.6000000238418579;" x1="166.5" x2="166.5" y1="669.7828" y2="776.9813"/><line style="stroke: #A80036; stroke-width: 0.6000000238418579;" x1="221.4" x2="221.4" y1="51.7781" y2="574.3781"/><line style="stroke: #A80036; stroke-width: 0.6000000238418579; stroke-dasharray: 1.0,4.0;" x1="221.4" x2="221.4" y1="574.3781" y2="598.861"/><line style="stroke: #A80036; stroke-width: 0.6000000238418579;" x1="221.4" x2="221.4" y1="598.861" y2="645.3"/><line style="stroke: #A80036; stroke-width: 0.6000000238418579; stroke-dasharray: 1.0,4.0;" x1="221.4" x2="221.4" y1="645.3" y2="669.7828"/><line style="stroke: #A80036; stroke-width: 0.6000000238418579;" x1="221.4" x2="221.4" y1="669.7828" y2="776.9813"/><line style="stroke: #A80036; stroke-width: 0.6000000238418579;" x1="349.8" x2="349.8" y1="51.7781" y2="574.3781"/><line style="stroke: #A80036; stroke-width: 0.6000000238418579; stroke-dasharray: 1.0,4.0;" x1="349.8" x2="349.8" y1="574.3781" y2="598.861"/><line style="stroke: #A80036; stroke-width: 0.6000000238418579;" x1="349.8" x2="349.8" y1="598.861" y2="645.3"/><line style="stroke: #A80036; stroke-width: 0.6000000238418579; stroke-dasharray: 1.0,4.0;" x1="349.8" x2="349.8" y1="645.3" y2="669.7828"/><line style="stroke: #A80036; stroke-width: 0.6000000238418579;" x1="349.8" x2="349.8" y1="669.7828" y2="776.9813"/><line style="stroke: #A80036; stroke-width: 0.6000000238418579;" x1="489.3" x2="489.3" y1="51.7781" y2="574.3781"/><line style="stroke: #A80036; stroke-width: 0.6000000238418579; stroke-dasharray: 1.0,4.0;" x1="489.3" x2="489.3" y1="574.3781" y2="598.861"/><line style="stroke: #A80036; stroke-width: 0.6000000238418579;" x1="489.3" x2="489.3" y1="598.861" y2="645.3"/><line style="stroke: #A80036; stroke-width: 0.6000000238418579; stroke-dasharray: 1.0,4.0;" x1="489.3" x2="489.3" y1="645.3" y2="669.7828"/><line style="stroke: #A80036; stroke-width: 0.6000000238418579;" x1="489.3" x2="489.3" y1="669.7828" y2="776.9813"/><text fill="#000000" font-family="sans-serif" font-size="8.4" lengthAdjust="spacingAndGlyphs" textLength="42.6" x="60" y="49.7971">Commiter</text><ellipse cx="83.1" cy="7.8" fill="#FEFECE" filter="url(#fj09nia9ixxdw)" rx="4.8" ry="4.8" style="stroke: #A80036; stroke-width: 1.2000000476837158;"/><path d="M83.1,12.6 L83.1,28.8 M75.3,17.4 L90.9,17.4 M83.1,28.8 L75.3,37.8 M83.1,28.8 L90.9,37.8 " fill="none" filter="url(#fj09nia9ixxdw)" style="stroke: #A80036; stroke-width: 1.2000000476837158;"/><text fill="#000000" font-family="sans-serif" font-size="8.4" lengthAdjust="spacingAndGlyphs" textLength="42.6" x="60" y="784.1784">Commiter</text><ellipse cx="83.1" cy="792.1594" fill="#FEFECE" filter="url(#fj09nia9ixxdw)" rx="4.8" ry="4.8" style="stroke: #A80036; stroke-width: 1.2000000476837158;"/><path d="M83.1,796.9594 L83.1,813.1594 M75.3,801.7594 L90.9,801.7594 M83.1,813.1594 L75.3,822.1594 M83.1,813.1594 L90.9,822.1594 " fill="none" filter="url(#fj09nia9ixxdw)" style="stroke: #A80036; stroke-width: 1.2000000476837158;"/><rect fill="#FEFECE" filter="url(#fj09nia9ixxdw)" height="18.1781" style="stroke: #A80036; stroke-width: 0.9000000357627869;" width="38.4" x="146.1" y="30.6"/><text fill="#000000" font-family="sans-serif" font-size="8.4" lengthAdjust="spacingAndGlyphs" textLength="30" x="150.3" y="42.5971">master</text><rect fill="#FEFECE" filter="url(#fj09nia9ixxdw)" height="18.1781" style="stroke: #A80036; stroke-width: 0.9000000357627869;" width="38.4" x="146.1" y="776.3813"/><text fill="#000000" font-family="sans-serif" font-size="8.4" lengthAdjust="spacingAndGlyphs" textLength="30" x="150.3" y="788.3784">master</text><rect fill="#FEFECE" filter="url(#fj09nia9ixxdw)" height="18.1781" style="stroke: #A80036; stroke-width: 0.9000000357627869;" width="49.8" x="195.6" y="30.6"/><text fill="#000000" font-family="sans-serif" font-size="8.4" lengthAdjust="spacingAndGlyphs" textLength="41.4" x="199.8" y="42.5971">PR_Check</text><rect fill="#FEFECE" filter="url(#fj09nia9ixxdw)" height="18.1781" style="stroke: #A80036; stroke-width: 0.9000000357627869;" width="49.8" x="195.6" y="776.3813"/><text fill="#000000" font-family="sans-serif" font-size="8.4" lengthAdjust="spacingAndGlyphs" textLength="41.4" x="199.8" y="788.3784">PR_Check</text><text fill="#000000" font-family="sans-serif" font-size="8.4" lengthAdjust="spacingAndGlyphs" textLength="54.6" x="321" y="49.7971">ci.centos.org</text><ellipse cx="350.1" cy="32.4" fill="#FEFECE" filter="url(#fj09nia9ixxdw)" rx="7.2" ry="7.2" style="stroke: #A80036; stroke-width: 1.2000000476837158;"/><line style="stroke: #A80036; stroke-width: 1.2000000476837158;" x1="342.9" x2="357.3" y1="40.8" y2="40.8"/><text fill="#000000" font-family="sans-serif" font-size="8.4" lengthAdjust="spacingAndGlyphs" textLength="54.6" x="321" y="784.1784">ci.centos.org</text><ellipse cx="350.1" cy="795.7594" fill="#FEFECE" filter="url(#fj09nia9ixxdw)" rx="7.2" ry="7.2" style="stroke: #A80036; stroke-width: 1.2000000476837158;"/><line style="stroke: #A80036; stroke-width: 1.2000000476837158;" x1="342.9" x2="357.3" y1="804.1594" y2="804.1594"/><text fill="#000000" font-family="sans-serif" font-size="8.4" lengthAdjust="spacingAndGlyphs" textLength="85.2" x="444.9" y="49.7971">dev.rdu2c.fabric8.io</text><path d="M478.5,20.4 C478.5,14.4 489.3,14.4 489.3,14.4 C489.3,14.4 500.1,14.4 500.1,20.4 L500.1,36 C500.1,42 489.3,42 489.3,42 C489.3,42 478.5,42 478.5,36 L478.5,20.4 " fill="#FEFECE" filter="url(#fj09nia9ixxdw)" style="stroke: #000000; stroke-width: 0.9000000357627869;"/><path d="M478.5,20.4 C478.5,26.4 489.3,26.4 489.3,26.4 C489.3,26.4 500.1,26.4 500.1,20.4 " fill="none" style="stroke: #000000; stroke-width: 0.9000000357627869;"/><text fill="#000000" font-family="sans-serif" font-size="8.4" lengthAdjust="spacingAndGlyphs" textLength="85.2" x="444.9" y="784.1784">dev.rdu2c.fabric8.io</text><path d="M478.5,792.1594 C478.5,786.1594 489.3,786.1594 489.3,786.1594 C489.3,786.1594 500.1,786.1594 500.1,792.1594 L500.1,807.7594 C500.1,813.7594 489.3,813.7594 489.3,813.7594 C489.3,813.7594 478.5,813.7594 478.5,807.7594 L478.5,792.1594 " fill="#FEFECE" filter="url(#fj09nia9ixxdw)" style="stroke: #000000; stroke-width: 0.9000000357627869;"/><path d="M478.5,792.1594 C478.5,798.1594 489.3,798.1594 489.3,798.1594 C489.3,798.1594 500.1,798.1594 500.1,792.1594 " fill="none" style="stroke: #000000; stroke-width: 0.9000000357627869;"/><rect fill="#FFFFFF" filter="url(#fj09nia9ixxdw)" height="486.5203" style="stroke: #FFFFFF; stroke-width: 0.6000000238418579;" width="6" x="218.7" y="87.8578"/><line style="stroke: #A80036; stroke-width: 0.6000000238418579;" x1="218.7" x2="218.7" y1="87.8578" y2="574.3781"/><line style="stroke: #A80036; stroke-width: 0.6000000238418579;" x1="224.7" x2="224.7" y1="87.8578" y2="574.3781"/><line style="stroke: #A80036; stroke-width: 0.6000000238418579;" x1="218.7" x2="224.7" y1="87.8578" y2="87.8578"/><rect fill="#FFFFFF" filter="url(#fj09nia9ixxdw)" height="41.5594" style="stroke: #FFFFFF; stroke-width: 0.6000000238418579;" width="6" x="218.7" y="598.861"/><line style="stroke: #A80036; stroke-width: 0.6000000238418579;" x1="218.7" x2="218.7" y1="598.861" y2="640.4203"/><line style="stroke: #A80036; stroke-width: 0.6000000238418579;" x1="224.7" x2="224.7" y1="598.861" y2="640.4203"/><line style="stroke: #A80036; stroke-width: 0.6000000238418579;" x1="218.7" x2="224.7" y1="640.4203" y2="640.4203"/><rect fill="#FFFFFF" filter="url(#fj09nia9ixxdw)" height="373.2422" style="stroke: #A80036; stroke-width: 0.6000000238418579;" width="6" x="347.1" y="148.6969"/><rect fill="#FFFFFF" filter="url(#fj09nia9ixxdw)" height="18" style="stroke: #A80036; stroke-width: 0.6000000238418579;" width="6" x="347.1" y="733.1016"/><polygon fill="#000000" points="159.3,67.9781,165.3,70.3781,159.3,72.7781,161.7,70.3781" style="stroke: #000000; stroke-width: 0.6000000238418579;"/><line style="stroke: #000000; stroke-width: 0.6000000238418579;" x1="83.1" x2="162.9" y1="70.3781" y2="70.3781"/><text fill="#000000" font-family="sans-serif" font-size="7.8" lengthAdjust="spacingAndGlyphs" textLength="69" x="87.3" y="67.4183">Open pull request</text><line style="stroke: #0000FF; stroke-width: 0.6000000238418579;" x1="217.5" x2="211.5" y1="87.8578" y2="85.4578"/><line style="stroke: #0000FF; stroke-width: 0.6000000238418579;" x1="217.5" x2="211.5" y1="87.8578" y2="90.2578"/><line style="stroke: #0000FF; stroke-width: 0.6000000238418579;" x1="166.5" x2="218.1" y1="87.8578" y2="87.8578"/><text fill="#000000" font-family="sans-serif" font-size="7.8" lengthAdjust="spacingAndGlyphs" textLength="12.6" x="170.7" y="84.898">init</text><rect fill="#EEEEEE" filter="url(#fj09nia9ixxdw)" height="1.8" style="stroke: #EEEEEE; stroke-width: 0.6000000238418579;" width="555.9" x="1.8" y="105.0773"/><line style="stroke: #000000; stroke-width: 0.6000000238418579;" x1="1.8" x2="557.7" y1="105.0773" y2="105.0773"/><line style="stroke: #000000; stroke-width: 0.6000000238418579;" x1="1.8" x2="557.7" y1="106.8773" y2="106.8773"/><rect fill="#EEEEEE" filter="url(#fj09nia9ixxdw)" height="13.8797" style="stroke: #000000; stroke-width: 1.2000000476837158;" width="105.6" x="226.95" y="98.7375"/><text fill="#000000" font-family="sans-serif" font-size="7.8" font-weight="bold" lengthAdjust="spacingAndGlyphs" textLength="94.2" x="230.55" y="108.3776">Commit until success</text><polygon fill="#000000" points="211.5,128.8172,217.5,131.2172,211.5,133.6172,213.9,131.2172" style="stroke: #000000; stroke-width: 0.6000000238418579;"/><line style="stroke: #000000; stroke-width: 0.6000000238418579;" x1="83.1" x2="215.1" y1="131.2172" y2="131.2172"/><text fill="#000000" font-family="sans-serif" font-size="7.8" lengthAdjust="spacingAndGlyphs" textLength="54.6" x="87.3" y="128.2573">Commit, push</text><line style="stroke: #0000FF; stroke-width: 0.6000000238418579;" x1="345.9" x2="339.9" y1="148.6969" y2="146.2969"/><line style="stroke: #0000FF; stroke-width: 0.6000000238418579;" x1="345.9" x2="339.9" y1="148.6969" y2="151.0969"/><line style="stroke: #0000FF; stroke-width: 0.6000000238418579;" x1="224.7" x2="346.5" y1="148.6969" y2="148.6969"/><text fill="#000000" font-family="sans-serif" font-size="7.8" lengthAdjust="spacingAndGlyphs" textLength="60.6" x="228.9" y="145.737">trigger_prcheck</text><path d="M42,157.7766 L80.4,157.7766 L80.4,161.9766 L74.4,167.9766 L42,167.9766 L42,157.7766 " fill="#EEEEEE" style="stroke: #000000; stroke-width: 0.6000000238418579;"/><rect fill="none" height="412.4016" style="stroke: #000000; stroke-width: 1.2000000476837158;" width="509.7" x="42" y="157.7766"/><text fill="#000000" font-family="sans-serif" font-size="7.8" font-weight="bold" lengthAdjust="spacingAndGlyphs" textLength="11.4" x="51" y="165.6167">alt</text><text fill="#000000" font-family="sans-serif" font-size="6.6" font-weight="bold" lengthAdjust="spacingAndGlyphs" textLength="77.4" x="89.4" y="165.1028">[Build - case_failure]</text><line style="stroke: #FF0000; stroke-width: 0.6000000238418579;" x1="224.7" x2="230.7" y1="180.6563" y2="178.2563"/><line style="stroke: #FF0000; stroke-width: 0.6000000238418579;" x1="224.7" x2="230.7" y1="180.6563" y2="183.0563"/><line style="stroke: #FF0000; stroke-width: 0.6000000238418579; stroke-dasharray: 2.0,2.0;" x1="224.7" x2="346.5" y1="180.6563" y2="180.6563"/><text fill="#000000" font-family="sans-serif" font-size="7.8" lengthAdjust="spacingAndGlyphs" textLength="45.6" x="234.9" y="177.6964">build_failed</text><line style="stroke: #FF0000; stroke-width: 0.6000000238418579;" x1="166.5" x2="172.5" y1="198.1359" y2="195.7359"/><line style="stroke: #FF0000; stroke-width: 0.6000000238418579;" x1="166.5" x2="172.5" y1="198.1359" y2="200.5359"/><line style="stroke: #FF0000; stroke-width: 0.6000000238418579; stroke-dasharray: 2.0,2.0;" x1="166.5" x2="218.1" y1="198.1359" y2="198.1359"/><text fill="#000000" font-family="sans-serif" font-size="7.8" lengthAdjust="spacingAndGlyphs" textLength="33" x="176.7" y="195.1761">pr_block</text><line style="stroke: #FF0000; stroke-width: 0.6000000238418579;" x1="83.1" x2="89.1" y1="215.6156" y2="213.2156"/><line style="stroke: #FF0000; stroke-width: 0.6000000238418579;" x1="83.1" x2="89.1" y1="215.6156" y2="218.0156"/><line style="stroke: #FF0000; stroke-width: 0.6000000238418579; stroke-dasharray: 2.0,2.0;" x1="83.1" x2="218.1" y1="215.6156" y2="215.6156"/><text fill="#000000" font-family="sans-serif" font-size="7.8" lengthAdjust="spacingAndGlyphs" textLength="87" x="93.3" y="212.6558">notify, link to artifacts</text><line style="stroke: #000000; stroke-width: 0.6000000238418579; stroke-dasharray: 2.0,2.0;" x1="42" x2="551.7" y1="221.0953" y2="221.0953"/><text fill="#000000" font-family="sans-serif" font-size="6.6" font-weight="bold" lengthAdjust="spacingAndGlyphs" textLength="83.4" x="45" y="227.2216">[Build - case_success]</text><line style="stroke: #00FF00; stroke-width: 0.6000000238418579;" x1="488.1" x2="482.1" y1="241.9781" y2="239.5781"/><line style="stroke: #00FF00; stroke-width: 0.6000000238418579;" x1="488.1" x2="482.1" y1="241.9781" y2="244.3781"/><line style="stroke: #00FF00; stroke-width: 0.6000000238418579;" x1="353.1" x2="488.7" y1="241.9781" y2="241.9781"/><text fill="#000000" font-family="sans-serif" font-size="7.8" lengthAdjust="spacingAndGlyphs" textLength="83.4" x="357.3" y="239.0183">build success, deploy</text><path d="M48,251.0578 L86.4,251.0578 L86.4,255.2578 L80.4,261.2578 L48,261.2578 L48,251.0578 " fill="#EEEEEE" style="stroke: #000000; stroke-width: 0.6000000238418579;"/><rect fill="none" height="314.9203" style="stroke: #000000; stroke-width: 1.2000000476837158;" width="497.7" x="48" y="251.0578"/><text fill="#000000" font-family="sans-serif" font-size="7.8" font-weight="bold" lengthAdjust="spacingAndGlyphs" textLength="11.4" x="57" y="258.898">alt</text><text fill="#000000" font-family="sans-serif" font-size="6.6" font-weight="bold" lengthAdjust="spacingAndGlyphs" textLength="102.6" x="95.4" y="258.3841">[Deployment - case_failure]</text><line style="stroke: #FF0000; stroke-width: 0.6000000238418579;" x1="353.1" x2="359.1" y1="273.9375" y2="271.5375"/><line style="stroke: #FF0000; stroke-width: 0.6000000238418579;" x1="353.1" x2="359.1" y1="273.9375" y2="276.3375"/><line style="stroke: #FF0000; stroke-width: 0.6000000238418579; stroke-dasharray: 2.0,2.0;" x1="353.1" x2="488.7" y1="273.9375" y2="273.9375"/><text fill="#000000" font-family="sans-serif" font-size="7.8" lengthAdjust="spacingAndGlyphs" textLength="73.2" x="363.3" y="270.9776">deployment_failed</text><line style="stroke: #FF0000; stroke-width: 0.6000000238418579;" x1="224.7" x2="230.7" y1="291.4172" y2="289.0172"/><line style="stroke: #FF0000; stroke-width: 0.6000000238418579;" x1="224.7" x2="230.7" y1="291.4172" y2="293.8172"/><line style="stroke: #FF0000; stroke-width: 0.6000000238418579; stroke-dasharray: 2.0,2.0;" x1="224.7" x2="346.5" y1="291.4172" y2="291.4172"/><text fill="#000000" font-family="sans-serif" font-size="7.8" lengthAdjust="spacingAndGlyphs" textLength="45.6" x="234.9" y="288.4573">build_failed</text><line style="stroke: #FF0000; stroke-width: 0.6000000238418579;" x1="166.5" x2="172.5" y1="308.8969" y2="306.4969"/><line style="stroke: #FF0000; stroke-width: 0.6000000238418579;" x1="166.5" x2="172.5" y1="308.8969" y2="311.2969"/><line style="stroke: #FF0000; stroke-width: 0.6000000238418579; stroke-dasharray: 2.0,2.0;" x1="166.5" x2="218.1" y1="308.8969" y2="308.8969"/><text fill="#000000" font-family="sans-serif" font-size="7.8" lengthAdjust="spacingAndGlyphs" textLength="33" x="176.7" y="305.937">pr_block</text><line style="stroke: #FF0000; stroke-width: 0.6000000238418579;" x1="83.1" x2="89.1" y1="326.3766" y2="323.9766"/><line style="stroke: #FF0000; stroke-width: 0.6000000238418579;" x1="83.1" x2="89.1" y1="326.3766" y2="328.7766"/><line style="stroke: #FF0000; stroke-width: 0.6000000238418579; stroke-dasharray: 2.0,2.0;" x1="83.1" x2="218.1" y1="326.3766" y2="326.3766"/><text fill="#000000" font-family="sans-serif" font-size="7.8" lengthAdjust="spacingAndGlyphs" textLength="87" x="93.3" y="323.4167">notify, link to artifacts</text><line style="stroke: #000000; stroke-width: 0.6000000238418579; stroke-dasharray: 2.0,2.0;" x1="48" x2="545.7" y1="331.8563" y2="331.8563"/><text fill="#000000" font-family="sans-serif" font-size="6.6" font-weight="bold" lengthAdjust="spacingAndGlyphs" textLength="108.6" x="51" y="337.9825">[Deployment - case_success]</text><line style="stroke: #00FF00; stroke-width: 0.6000000238418579;" x1="353.1" x2="359.1" y1="352.7391" y2="350.3391"/><line style="stroke: #00FF00; stroke-width: 0.6000000238418579;" x1="353.1" x2="359.1" y1="352.7391" y2="355.1391"/><line style="stroke: #00FF00; stroke-width: 0.6000000238418579; stroke-dasharray: 2.0,2.0;" x1="353.1" x2="488.7" y1="352.7391" y2="352.7391"/><text fill="#000000" font-family="sans-serif" font-size="7.8" lengthAdjust="spacingAndGlyphs" textLength="81.6" x="363.3" y="349.7792">deployment_success</text><path d="M314.4,360.6188 L314.4,375.6188 L523.8,375.6188 L523.8,366.6188 L517.8,360.6188 L314.4,360.6188 " fill="#FBFB77" filter="url(#fj09nia9ixxdw)" style="stroke: #A80036; stroke-width: 0.6000000238418579;"/><path d="M517.8,360.6188 L517.8,366.6188 L523.8,366.6188 L517.8,360.6188 " fill="#FBFB77" style="stroke: #A80036; stroke-width: 0.6000000238418579;"/><text fill="#000000" font-family="sans-serif" font-size="7.8" lengthAdjust="spacingAndGlyphs" textLength="193.2" x="318.75" y="370.8589">Server remains deployed until next PR_Check run</text><line style="stroke: #0000FF; stroke-width: 0.6000000238418579;" x1="488.1" x2="482.1" y1="393.6985" y2="391.2985"/><line style="stroke: #0000FF; stroke-width: 0.6000000238418579;" x1="488.1" x2="482.1" y1="393.6985" y2="396.0985"/><line style="stroke: #0000FF; stroke-width: 0.6000000238418579;" x1="353.1" x2="488.7" y1="393.6985" y2="393.6985"/><text fill="#000000" font-family="sans-serif" font-size="7.8" lengthAdjust="spacingAndGlyphs" textLength="121.8" x="357.3" y="390.7386">run funtional tests smoke suite</text><path d="M54,402.7781 L92.4,402.7781 L92.4,406.9781 L86.4,412.9781 L54,412.9781 L54,402.7781 " fill="#EEEEEE" style="stroke: #000000; stroke-width: 0.6000000238418579;"/><rect fill="none" height="159" style="stroke: #000000; stroke-width: 1.2000000476837158;" width="485.7" x="54" y="402.7781"/><text fill="#000000" font-family="sans-serif" font-size="7.8" font-weight="bold" lengthAdjust="spacingAndGlyphs" textLength="11.4" x="63" y="410.6183">alt</text><text fill="#000000" font-family="sans-serif" font-size="6.6" font-weight="bold" lengthAdjust="spacingAndGlyphs" textLength="93.6" x="101.4" y="410.1044">[TestSuite - case_failure]</text><line style="stroke: #FF0000; stroke-width: 0.6000000238418579;" x1="353.1" x2="359.1" y1="425.6578" y2="423.2578"/><line style="stroke: #FF0000; stroke-width: 0.6000000238418579;" x1="353.1" x2="359.1" y1="425.6578" y2="428.0578"/><line style="stroke: #FF0000; stroke-width: 0.6000000238418579; stroke-dasharray: 2.0,2.0;" x1="353.1" x2="488.7" y1="425.6578" y2="425.6578"/><text fill="#000000" font-family="sans-serif" font-size="7.8" lengthAdjust="spacingAndGlyphs" textLength="65.4" x="363.3" y="422.698">tests_run_failure</text><line style="stroke: #FF0000; stroke-width: 0.6000000238418579;" x1="224.7" x2="230.7" y1="443.1375" y2="440.7375"/><line style="stroke: #FF0000; stroke-width: 0.6000000238418579;" x1="224.7" x2="230.7" y1="443.1375" y2="445.5375"/><line style="stroke: #FF0000; stroke-width: 0.6000000238418579; stroke-dasharray: 2.0,2.0;" x1="224.7" x2="346.5" y1="443.1375" y2="443.1375"/><text fill="#000000" font-family="sans-serif" font-size="7.8" lengthAdjust="spacingAndGlyphs" textLength="45.6" x="234.9" y="440.1777">build_failed</text><line style="stroke: #FF0000; stroke-width: 0.6000000238418579;" x1="166.5" x2="172.5" y1="460.6172" y2="458.2172"/><line style="stroke: #FF0000; stroke-width: 0.6000000238418579;" x1="166.5" x2="172.5" y1="460.6172" y2="463.0172"/><line style="stroke: #FF0000; stroke-width: 0.6000000238418579; stroke-dasharray: 2.0,2.0;" x1="166.5" x2="218.1" y1="460.6172" y2="460.6172"/><text fill="#000000" font-family="sans-serif" font-size="7.8" lengthAdjust="spacingAndGlyphs" textLength="33" x="176.7" y="457.6573">pr_block</text><line style="stroke: #FF0000; stroke-width: 0.6000000238418579;" x1="83.1" x2="89.1" y1="478.0969" y2="475.6969"/><line style="stroke: #FF0000; stroke-width: 0.6000000238418579;" x1="83.1" x2="89.1" y1="478.0969" y2="480.4969"/><line style="stroke: #FF0000; stroke-width: 0.6000000238418579; stroke-dasharray: 2.0,2.0;" x1="83.1" x2="218.1" y1="478.0969" y2="478.0969"/><text fill="#000000" font-family="sans-serif" font-size="7.8" lengthAdjust="spacingAndGlyphs" textLength="87" x="93.3" y="475.137">notify, link to artifacts</text><line style="stroke: #000000; stroke-width: 0.6000000238418579; stroke-dasharray: 2.0,2.0;" x1="54" x2="539.7" y1="483.5766" y2="483.5766"/><text fill="#000000" font-family="sans-serif" font-size="6.6" font-weight="bold" lengthAdjust="spacingAndGlyphs" textLength="99.6" x="57" y="489.7029">[TestSuite - case_success]</text><line style="stroke: #00FF00; stroke-width: 0.6000000238418579;" x1="353.1" x2="359.1" y1="504.4594" y2="502.0594"/><line style="stroke: #00FF00; stroke-width: 0.6000000238418579;" x1="353.1" x2="359.1" y1="504.4594" y2="506.8594"/><line style="stroke: #00FF00; stroke-width: 0.6000000238418579; stroke-dasharray: 2.0,2.0;" x1="353.1" x2="488.7" y1="504.4594" y2="504.4594"/><text fill="#000000" font-family="sans-serif" font-size="7.8" lengthAdjust="spacingAndGlyphs" textLength="70.8" x="363.3" y="501.4995">tests_run_success</text><line style="stroke: #00FF00; stroke-width: 0.6000000238418579;" x1="224.7" x2="230.7" y1="521.9391" y2="519.5391"/><line style="stroke: #00FF00; stroke-width: 0.6000000238418579;" x1="224.7" x2="230.7" y1="521.9391" y2="524.3391"/><line style="stroke: #00FF00; stroke-width: 0.6000000238418579; stroke-dasharray: 2.0,2.0;" x1="224.7" x2="349.5" y1="521.9391" y2="521.9391"/><text fill="#000000" font-family="sans-serif" font-size="7.8" lengthAdjust="spacingAndGlyphs" textLength="54" x="234.9" y="518.9792">build_success</text><line style="stroke: #00FF00; stroke-width: 0.6000000238418579;" x1="166.5" x2="172.5" y1="539.4188" y2="537.0188"/><line style="stroke: #00FF00; stroke-width: 0.6000000238418579;" x1="166.5" x2="172.5" y1="539.4188" y2="541.8188"/><line style="stroke: #00FF00; stroke-width: 0.6000000238418579; stroke-dasharray: 2.0,2.0;" x1="166.5" x2="218.1" y1="539.4188" y2="539.4188"/><text fill="#000000" font-family="sans-serif" font-size="7.8" lengthAdjust="spacingAndGlyphs" textLength="37.8" x="176.7" y="536.4589">pr_unlock</text><line style="stroke: #00FF00; stroke-width: 0.6000000238418579;" x1="83.1" x2="89.1" y1="556.8985" y2="554.4985"/><line style="stroke: #00FF00; stroke-width: 0.6000000238418579;" x1="83.1" x2="89.1" y1="556.8985" y2="559.2985"/><line style="stroke: #00FF00; stroke-width: 0.6000000238418579; stroke-dasharray: 2.0,2.0;" x1="83.1" x2="218.1" y1="556.8985" y2="556.8985"/><text fill="#000000" font-family="sans-serif" font-size="7.8" lengthAdjust="spacingAndGlyphs" textLength="101.4" x="93.3" y="553.9386">notify, link to deployment</text><text fill="#000000" font-family="sans-serif" font-size="6.6" lengthAdjust="spacingAndGlyphs" textLength="93" x="239.7" y="588.9044">more commits still possible</text><polygon fill="#FBFB77" filter="url(#fj09nia9ixxdw)" points="10.8,601.861,155.4,601.861,161.4,613.261,155.4,624.661,10.8,624.661,4.8,613.261,10.8,601.861" style="stroke: #A80036; stroke-width: 0.6000000238418579;"/><text fill="#000000" font-family="sans-serif" font-size="7.8" lengthAdjust="spacingAndGlyphs" textLength="141.6" x="12" y="611.5011">After PR is unblocked and approved,</text><text fill="#000000" font-family="sans-serif" font-size="7.8" lengthAdjust="spacingAndGlyphs" textLength="139.8" x="14.4" y="620.5808">the Commiter can confirm a merge.</text><polygon fill="#000000" points="159.3,638.0203,165.3,640.4203,159.3,642.8203,161.7,640.4203" style="stroke: #000000; stroke-width: 0.6000000238418579;"/><line style="stroke: #000000; stroke-width: 0.6000000238418579;" x1="83.1" x2="162.9" y1="640.4203" y2="640.4203"/><text fill="#000000" font-family="sans-serif" font-size="7.8" lengthAdjust="spacingAndGlyphs" textLength="25.2" x="87.3" y="637.4605">merge</text><line style="stroke: #A80036; stroke-width: 1.2000000476837158;" x1="216.3" x2="227.1" y1="635.0203" y2="645.8203"/><line style="stroke: #A80036; stroke-width: 1.2000000476837158;" x1="216.3" x2="227.1" y1="645.8203" y2="635.0203"/><text fill="#000000" font-family="sans-serif" font-size="6.6" lengthAdjust="spacingAndGlyphs" textLength="99.6" x="236.4" y="659.8263">merge to master jenkins jobs</text><path d="M179.4,672.7828 L179.4,714.7828 L390,714.7828 L390,678.7828 L384,672.7828 L179.4,672.7828 " fill="#FBFB77" filter="url(#fj09nia9ixxdw)" style="stroke: #A80036; stroke-width: 0.6000000238418579;"/><path d="M384,672.7828 L384,678.7828 L390,678.7828 L384,672.7828 " fill="#FBFB77" style="stroke: #A80036; stroke-width: 0.6000000238418579;"/><text fill="#000000" font-family="sans-serif" font-size="7.8" lengthAdjust="spacingAndGlyphs" textLength="138.6" x="183" y="683.023">After successful merge and build of</text><text fill="#000000" font-family="sans-serif" font-size="7.8" lengthAdjust="spacingAndGlyphs" textLength="177" x="183" y="692.1027">devtools-rh-che-build-che-credentials-master</text><text fill="#000000" font-family="sans-serif" font-size="7.8" lengthAdjust="spacingAndGlyphs" textLength="189" x="183" y="701.1824">the dependency build will be triggered to ensure</text><text fill="#000000" font-family="sans-serif" font-size="7.8" lengthAdjust="spacingAndGlyphs" textLength="198" x="183" y="710.262">latest packages are contained in the docker image</text><line style="stroke: #0000FF; stroke-width: 0.6000000238418579;" x1="345.9" x2="339.9" y1="733.1016" y2="730.7016"/><line style="stroke: #0000FF; stroke-width: 0.6000000238418579;" x1="345.9" x2="339.9" y1="733.1016" y2="735.5016"/><line style="stroke: #0000FF; stroke-width: 0.6000000238418579;" x1="166.5" x2="346.5" y1="733.1016" y2="733.1016"/><text fill="#000000" font-family="sans-serif" font-size="7.8" lengthAdjust="spacingAndGlyphs" textLength="169.2" x="170.7" y="730.1417">webhooks merge, trigger dependency build</text><!--
@startuml
skinparam backgroundColor #EEEBDC
actor Commiter
participant master
participant PR_Check
entity ci.centos.org
database dev.rdu2c.fabric8.io

Commiter -[#000]> master : Open pull request
master -[#00F]>> PR_Check : init
activate PR_Check
== Commit until success ==
Commiter -[#000]> PR_Check : Commit, push
PR_Check -[#00F]>> ci.centos.org : trigger_prcheck
activate ci.centos.org
alt Build - case_failure
        PR_Check <<-[#F00]- ci.centos.org : build_failed
        master <<-[#F00]- PR_Check : pr_block
        Commiter <<-[#F00]- PR_Check : notify, link to artifacts
else Build - case_success
        ci.centos.org -[#0F0]>> dev.rdu2c.fabric8.io : build success, deploy
        alt Deployment - case_failure
                ci.centos.org <<-[#F00]- dev.rdu2c.fabric8.io : deployment_failed
                PR_Check <<-[#F00]- ci.centos.org : build_failed
                master <<-[#F00]- PR_Check : pr_block
                Commiter <<-[#F00]- PR_Check : notify, link to artifacts
        else Deployment - case_success
                ci.centos.org <<-[#0F0]- dev.rdu2c.fabric8.io : deployment_success
                note over ci.centos.org, dev.rdu2c.fabric8.io : Server remains deployed until next PR_Check run
                ci.centos.org -[#00F]>> dev.rdu2c.fabric8.io : run funtional tests smoke suite
                alt TestSuite - case_failure
                        ci.centos.org <<-[#F00]- dev.rdu2c.fabric8.io : tests_run_failure
                        PR_Check <<-[#F00]- ci.centos.org : build_failed
                        master <<-[#F00]- PR_Check : pr_block
                        Commiter <<-[#F00]- PR_Check : notify, link to artifacts
                else TestSuite - case_success
                        ci.centos.org <<-[#0F0]- dev.rdu2c.fabric8.io : tests_run_success
                        PR_Check <<-[#0F0]- ci.centos.org : build_success
                        deactivate ci.centos.org
                        master <<-[#0F0]- PR_Check : pr_unlock
                        Commiter <<-[#0F0]- PR_Check : notify, link to deployment
                end
        end
end
... more commits still possible ...
hnote over Commiter: After PR is unblocked and approved,\n the Commiter can confirm a merge.
Commiter -[#000]> master : merge
destroy PR_Check
... merge to master jenkins jobs ...
note over PR_Check, ci.centos.org
  After successful merge and build of
  devtools-rh-che-build-che-credentials-master
  the dependency build will be triggered to ensure
  latest packages are contained in the docker image
end note
master -[#00F]>> ci.centos.org : webhooks merge, trigger dependency build
activate ci.centos.org
|||
deactivate ci.centos.org
@enduml

PlantUML version 1.2018.01(Sun Jan 28 19:08:22 CET 2018)
(GPL source distribution)
Java Runtime: OpenJDK Runtime Environment
JVM: OpenJDK 64-Bit Server VM
Java Version: 1.8.0_152-release-1248-b8
Operating System: Linux
OS Version: 4.17.11-200.fc28.x86_64
Default Encoding: UTF-8
Language: en
Country: US
--></g></svg>